<svg xmlns="http://www.w3.org/2000/svg" xmlns:xlink="http://www.w3.org/1999/xlink" width="500" zoomAndPan="magnify" viewBox="0 0 375 374.999991" height="500" preserveAspectRatio="xMidYMid meet" version="1.0"><defs><g/><clipPath id="9abe89875e"><path d="M 16 168 L 63 168 L 63 194 L 16 194 Z M 16 168 " clip-rule="nonzero"/></clipPath><clipPath id="80f180af38"><path d="M 38.386719 150.410156 L 63.96875 172.421875 L 37.0625 203.691406 L 11.480469 181.675781 Z M 38.386719 150.410156 " clip-rule="nonzero"/></clipPath><clipPath id="fb405cd9b6"><path d="M 63.886719 172.355469 L 38.304688 150.339844 L 11.398438 181.609375 L 36.980469 203.621094 Z M 63.886719 172.355469 " clip-rule="nonzero"/></clipPath><clipPath id="7277545927"><path d="M 37 181 L 63 181 L 63 215 L 37 215 Z M 37 181 " clip-rule="nonzero"/></clipPath><clipPath id="6e5ca2b24f"><path d="M 36.226562 182.503906 L 63.210938 181.632812 L 64.25 213.867188 L 37.265625 214.738281 Z M 36.226562 182.503906 " clip-rule="nonzero"/></clipPath><clipPath id="b1fa99c557"><path d="M 62.835938 181.644531 L 35.851562 182.515625 L 36.890625 214.75 L 63.875 213.878906 Z M 62.835938 181.644531 " clip-rule="nonzero"/></clipPath><clipPath id="38bf55f939"><path d="M 29 144 L 63 144 L 63 170 L 29 170 Z M 29 144 " clip-rule="nonzero"/></clipPath><clipPath id="8c4bb2917e"><path d="M 61.441406 142.902344 L 62.605469 169.878906 L 30.386719 171.265625 L 29.222656 144.292969 Z M 61.441406 142.902344 " clip-rule="nonzero"/></clipPath><clipPath id="69a7e360d2"><path d="M 62.589844 169.503906 L 61.425781 142.527344 L 29.207031 143.917969 L 30.367188 170.890625 Z M 62.589844 169.503906 " clip-rule="nonzero"/></clipPath></defs><g fill="#000000" fill-opacity="1"><g transform="translate(70.003791, 191.870157)"><g><path d="M 15.90625 9.171875 C 14.769531 9.171875 13.382812 9.03125 11.75 8.75 C 10.113281 8.46875 8.53125 7.914062 7 7.09375 C 5.476562 6.28125 4.144531 5.117188 3 3.609375 C 1.851562 2.097656 1.179688 0.140625 0.984375 -2.265625 C 0.859375 -3.929688 1.039062 -5.425781 1.53125 -6.75 C 2.019531 -8.082031 2.722656 -9.226562 3.640625 -10.1875 C 4.554688 -11.144531 5.644531 -11.878906 6.90625 -12.390625 C 8.175781 -12.898438 9.503906 -13.15625 10.890625 -13.15625 C 13.015625 -13.15625 14.601562 -12.664062 15.65625 -11.6875 C 16.71875 -10.707031 17.429688 -9.625 17.796875 -8.4375 C 18.171875 -7.257812 18.296875 -6.179688 18.171875 -5.203125 C 18.046875 -4.222656 17.84375 -3.734375 17.5625 -3.734375 C 17.519531 -3.734375 17.5 -3.742188 17.5 -3.765625 C 17.5 -3.785156 17.476562 -3.796875 17.4375 -3.796875 C 16.050781 -4.734375 14.664062 -5.203125 13.28125 -5.203125 C 11.96875 -5.203125 10.90625 -4.757812 10.09375 -3.875 C 9.28125 -3 8.875 -1.789062 8.875 -0.25 C 8.875 0.851562 9.066406 1.800781 9.453125 2.59375 C 9.835938 3.394531 10.347656 4.0625 10.984375 4.59375 C 11.617188 5.125 12.363281 5.507812 13.21875 5.75 C 14.070312 6 14.96875 6.125 15.90625 6.125 C 17.207031 6.125 18.304688 5.796875 19.203125 5.140625 C 20.109375 4.484375 20.828125 3.664062 21.359375 2.6875 C 21.890625 1.707031 22.253906 0.671875 22.453125 -0.421875 C 22.660156 -1.523438 22.722656 -2.503906 22.640625 -3.359375 C 22.472656 -5.359375 21.898438 -7.101562 20.921875 -8.59375 C 19.941406 -10.082031 18.757812 -11.445312 17.375 -12.6875 C 15.988281 -13.9375 14.488281 -15.117188 12.875 -16.234375 C 11.269531 -17.359375 9.742188 -18.570312 8.296875 -19.875 C 6.847656 -21.1875 5.582031 -22.65625 4.5 -24.28125 C 3.414062 -25.914062 2.691406 -27.835938 2.328125 -30.046875 C 2.035156 -31.835938 2.1875 -33.546875 2.78125 -35.171875 C 3.375 -36.804688 4.320312 -38.234375 5.625 -39.453125 C 6.9375 -40.679688 8.550781 -41.648438 10.46875 -42.359375 C 12.382812 -43.078125 14.523438 -43.4375 16.890625 -43.4375 C 18.847656 -43.4375 20.648438 -43.210938 22.296875 -42.765625 C 23.953125 -42.316406 25.367188 -41.6875 26.546875 -40.875 C 27.734375 -40.0625 28.648438 -39.050781 29.296875 -37.84375 C 29.953125 -36.644531 30.28125 -35.269531 30.28125 -33.71875 C 30.28125 -32.78125 30.109375 -31.953125 29.765625 -31.234375 C 29.421875 -30.523438 28.953125 -29.9375 28.359375 -29.46875 C 27.765625 -29 27.097656 -28.640625 26.359375 -28.390625 C 25.628906 -28.148438 24.878906 -28.03125 24.109375 -28.03125 C 22.515625 -28.03125 21.289062 -28.351562 20.4375 -29 C 19.582031 -29.65625 19.15625 -30.226562 19.15625 -30.71875 C 19.15625 -30.914062 19.304688 -31.097656 19.609375 -31.265625 C 19.910156 -31.429688 20.242188 -31.675781 20.609375 -32 C 20.984375 -32.320312 21.320312 -32.75 21.625 -33.28125 C 21.9375 -33.8125 22.09375 -34.546875 22.09375 -35.484375 C 22.09375 -36.015625 22 -36.566406 21.8125 -37.140625 C 21.625 -37.710938 21.328125 -38.242188 20.921875 -38.734375 C 20.515625 -39.222656 19.972656 -39.617188 19.296875 -39.921875 C 18.628906 -40.234375 17.804688 -40.390625 16.828125 -40.390625 C 15.191406 -40.390625 13.882812 -39.878906 12.90625 -38.859375 C 11.925781 -37.835938 11.4375 -36.304688 11.4375 -34.265625 C 11.4375 -32.515625 11.832031 -30.929688 12.625 -29.515625 C 13.425781 -28.109375 14.457031 -26.78125 15.71875 -25.53125 C 16.988281 -24.289062 18.390625 -23.066406 19.921875 -21.859375 C 21.453125 -20.660156 22.929688 -19.421875 24.359375 -18.140625 C 25.785156 -16.859375 27.085938 -15.472656 28.265625 -13.984375 C 29.453125 -12.492188 30.3125 -10.8125 30.84375 -8.9375 C 31.445312 -6.894531 31.609375 -4.800781 31.328125 -2.65625 C 31.046875 -0.519531 30.300781 1.421875 29.09375 3.171875 C 27.894531 4.929688 26.203125 6.367188 24.015625 7.484375 C 21.835938 8.609375 19.132812 9.171875 15.90625 9.171875 Z M 15.90625 9.171875 "/></g></g></g><g fill="#000000" fill-opacity="1"><g transform="translate(102.373135, 191.870157)"><g><path d="M 1.21875 -29.1875 C 1.707031 -29.1875 2.378906 -29.207031 3.234375 -29.25 C 4.097656 -29.289062 5.019531 -29.367188 6 -29.484375 C 6.976562 -29.609375 7.984375 -29.800781 9.015625 -30.0625 C 10.054688 -30.332031 11.03125 -30.710938 11.9375 -31.203125 L 12.546875 -31.203125 L 12.546875 -9.421875 C 12.546875 -7.867188 12.820312 -6.734375 13.375 -6.015625 C 13.925781 -5.304688 14.648438 -4.953125 15.546875 -4.953125 C 16.234375 -4.953125 16.894531 -5.15625 17.53125 -5.5625 C 18.164062 -5.976562 18.707031 -6.429688 19.15625 -6.921875 C 19.6875 -7.484375 20.195312 -8.132812 20.6875 -8.875 L 20.6875 -25.9375 C 20.6875 -26.550781 20.476562 -27.144531 20.0625 -27.71875 C 19.65625 -28.289062 19.148438 -28.578125 18.546875 -28.578125 L 18.546875 -29.1875 C 19.035156 -29.1875 19.707031 -29.207031 20.5625 -29.25 C 21.414062 -29.289062 22.332031 -29.367188 23.3125 -29.484375 C 24.289062 -29.609375 25.300781 -29.800781 26.34375 -30.0625 C 27.382812 -30.332031 28.351562 -30.710938 29.25 -31.203125 L 29.859375 -31.203125 L 29.859375 -4.65625 C 29.859375 -4.039062 30.0625 -3.445312 30.46875 -2.875 C 30.875 -2.300781 31.382812 -2.015625 32 -2.015625 L 32 -1.40625 C 31.507812 -1.40625 30.835938 -1.382812 29.984375 -1.34375 C 29.128906 -1.300781 28.210938 -1.21875 27.234375 -1.09375 C 26.253906 -0.976562 25.242188 -0.785156 24.203125 -0.515625 C 23.160156 -0.253906 22.191406 0.117188 21.296875 0.609375 L 20.6875 0.609375 L 20.6875 -3.609375 C 19.75 -2.628906 18.535156 -1.703125 17.046875 -0.828125 C 15.554688 0.046875 13.789062 0.484375 11.75 0.484375 C 9.21875 0.484375 7.1875 -0.285156 5.65625 -1.828125 C 4.125 -3.378906 3.359375 -5.828125 3.359375 -9.171875 L 3.359375 -25.9375 C 3.359375 -26.550781 3.15625 -27.144531 2.75 -27.71875 C 2.34375 -28.289062 1.832031 -28.578125 1.21875 -28.578125 Z M 1.21875 -29.1875 "/></g></g></g><g fill="#000000" fill-opacity="1"><g transform="translate(135.599136, 191.870157)"><g><path d="M 15.65625 -2.75 C 16.144531 -2.75 16.695312 -2.941406 17.3125 -3.328125 C 17.925781 -3.722656 18.488281 -4.390625 19 -5.328125 C 19.507812 -6.265625 19.945312 -7.523438 20.3125 -9.109375 C 20.675781 -10.703125 20.859375 -12.703125 20.859375 -15.109375 C 20.859375 -17.554688 20.675781 -19.59375 20.3125 -21.21875 C 19.945312 -22.851562 19.507812 -24.160156 19 -25.140625 C 18.488281 -26.117188 17.925781 -26.8125 17.3125 -27.21875 C 16.695312 -27.632812 16.144531 -27.84375 15.65625 -27.84375 C 15.25 -27.84375 14.800781 -27.632812 14.3125 -27.21875 C 13.820312 -26.8125 13.351562 -26.117188 12.90625 -25.140625 C 12.457031 -24.160156 12.078125 -22.851562 11.765625 -21.21875 C 11.460938 -19.59375 11.3125 -17.554688 11.3125 -15.109375 C 11.3125 -12.660156 11.429688 -10.640625 11.671875 -9.046875 C 11.921875 -7.460938 12.238281 -6.203125 12.625 -5.265625 C 13.019531 -4.328125 13.484375 -3.671875 14.015625 -3.296875 C 14.546875 -2.929688 15.09375 -2.75 15.65625 -2.75 Z M 11.3125 -28.703125 C 12.09375 -29.429688 12.992188 -30.007812 14.015625 -30.4375 C 15.035156 -30.863281 16.195312 -31.078125 17.5 -31.078125 C 19.289062 -31.078125 20.960938 -30.695312 22.515625 -29.9375 C 24.066406 -29.1875 25.421875 -28.117188 26.578125 -26.734375 C 27.742188 -25.347656 28.660156 -23.675781 29.328125 -21.71875 C 30.003906 -19.757812 30.34375 -17.554688 30.34375 -15.109375 C 30.34375 -12.703125 30.003906 -10.53125 29.328125 -8.59375 C 28.660156 -6.65625 27.742188 -5.015625 26.578125 -3.671875 C 25.421875 -2.328125 24.066406 -1.296875 22.515625 -0.578125 C 20.960938 0.128906 19.289062 0.484375 17.5 0.484375 C 16.238281 0.484375 15.175781 0.378906 14.3125 0.171875 C 13.457031 -0.0234375 12.660156 -0.253906 11.921875 -0.515625 C 11.191406 -0.785156 10.476562 -1.019531 9.78125 -1.21875 C 9.09375 -1.425781 8.300781 -1.53125 7.40625 -1.53125 C 6.789062 -1.53125 6.207031 -1.425781 5.65625 -1.21875 C 5.101562 -1.019531 4.601562 -0.796875 4.15625 -0.546875 C 3.625 -0.222656 3.15625 0.117188 2.75 0.484375 L 2.140625 0.484375 L 2.140625 -28.765625 C 2.140625 -31.734375 2.425781 -34.316406 3 -36.515625 C 3.570312 -38.722656 4.382812 -40.5625 5.4375 -42.03125 C 6.5 -43.5 7.773438 -44.585938 9.265625 -45.296875 C 10.753906 -46.015625 12.398438 -46.375 14.203125 -46.375 C 15.378906 -46.375 16.5 -46.203125 17.5625 -45.859375 C 18.625 -45.515625 19.570312 -45.035156 20.40625 -44.421875 C 21.238281 -43.804688 21.898438 -43.101562 22.390625 -42.3125 C 22.878906 -41.519531 23.125 -40.648438 23.125 -39.703125 C 23.125 -38.691406 22.972656 -37.867188 22.671875 -37.234375 C 22.367188 -36.597656 21.976562 -36.097656 21.5 -35.734375 C 21.03125 -35.367188 20.507812 -35.113281 19.9375 -34.96875 C 19.375 -34.820312 18.847656 -34.75 18.359375 -34.75 C 17.867188 -34.75 17.425781 -34.800781 17.03125 -34.90625 C 16.644531 -35.007812 16.414062 -35.101562 16.34375 -35.1875 C 16.175781 -35.34375 16.171875 -35.613281 16.328125 -36 C 16.492188 -36.394531 16.578125 -37.179688 16.578125 -38.359375 C 16.578125 -39.867188 16.375 -41.082031 15.96875 -42 C 15.5625 -42.914062 14.953125 -43.375 14.140625 -43.375 C 13.648438 -43.375 13.226562 -43.179688 12.875 -42.796875 C 12.53125 -42.410156 12.242188 -41.675781 12.015625 -40.59375 C 11.796875 -39.507812 11.625 -38.007812 11.5 -36.09375 C 11.375 -34.175781 11.3125 -31.710938 11.3125 -28.703125 Z M 11.3125 -28.703125 "/></g></g></g><g fill="#000000" fill-opacity="1"><g transform="translate(166.867061, 191.870157)"><g><path d="M 1.53125 0 L 1.53125 -0.609375 C 2.144531 -0.609375 2.65625 -0.875 3.0625 -1.40625 C 3.46875 -1.9375 3.671875 -2.507812 3.671875 -3.125 L 3.671875 -40.328125 C 3.671875 -40.929688 3.46875 -41.519531 3.0625 -42.09375 C 2.65625 -42.664062 2.144531 -42.953125 1.53125 -42.953125 L 1.53125 -43.5625 C 2.019531 -43.5625 2.691406 -43.582031 3.546875 -43.625 C 4.398438 -43.664062 5.316406 -43.75 6.296875 -43.875 C 7.273438 -44 8.285156 -44.191406 9.328125 -44.453125 C 10.367188 -44.710938 11.335938 -45.085938 12.234375 -45.578125 L 12.84375 -45.578125 L 12.84375 -3.125 C 12.84375 -2.507812 13.046875 -1.9375 13.453125 -1.40625 C 13.867188 -0.875 14.378906 -0.609375 14.984375 -0.609375 L 14.984375 0 Z M 1.53125 0 "/></g></g></g><g fill="#000000" fill-opacity="1"><g transform="translate(183.082322, 191.870157)"><g><path d="M 1.53125 -0.609375 C 2.144531 -0.609375 2.65625 -0.875 3.0625 -1.40625 C 3.46875 -1.9375 3.671875 -2.507812 3.671875 -3.125 L 3.671875 -25.9375 C 3.671875 -26.550781 3.46875 -27.144531 3.0625 -27.71875 C 2.65625 -28.289062 2.144531 -28.578125 1.53125 -28.578125 L 1.53125 -29.1875 C 2.019531 -29.1875 2.691406 -29.207031 3.546875 -29.25 C 4.398438 -29.289062 5.316406 -29.367188 6.296875 -29.484375 C 7.273438 -29.609375 8.285156 -29.800781 9.328125 -30.0625 C 10.367188 -30.332031 11.335938 -30.710938 12.234375 -31.203125 L 12.84375 -31.203125 L 12.84375 -3.125 C 12.84375 -2.507812 13.046875 -1.9375 13.453125 -1.40625 C 13.867188 -0.875 14.378906 -0.609375 14.984375 -0.609375 L 14.984375 0 L 1.53125 0 Z M 2.453125 -38.546875 C 2.453125 -40.097656 2.929688 -41.351562 3.890625 -42.3125 C 4.847656 -43.269531 6.101562 -43.75 7.65625 -43.75 C 9.195312 -43.75 10.445312 -43.269531 11.40625 -42.3125 C 12.363281 -41.351562 12.84375 -40.097656 12.84375 -38.546875 C 12.84375 -36.992188 12.363281 -35.738281 11.40625 -34.78125 C 10.445312 -33.820312 9.195312 -33.34375 7.65625 -33.34375 C 6.101562 -33.34375 4.847656 -33.820312 3.890625 -34.78125 C 2.929688 -35.738281 2.453125 -36.992188 2.453125 -38.546875 Z M 2.453125 -38.546875 "/></g></g></g><g fill="#000000" fill-opacity="1"><g transform="translate(199.297584, 191.870157)"><g><path d="M 12.234375 -31.203125 L 12.84375 -31.203125 L 12.84375 -26.984375 C 13.78125 -27.960938 14.992188 -28.890625 16.484375 -29.765625 C 17.972656 -30.640625 19.738281 -31.078125 21.78125 -31.078125 C 23.613281 -31.078125 25.203125 -30.691406 26.546875 -29.921875 C 27.898438 -29.148438 28.882812 -27.90625 29.5 -26.1875 C 29.945312 -26.71875 30.484375 -27.269531 31.109375 -27.84375 C 31.742188 -28.414062 32.457031 -28.945312 33.25 -29.4375 C 34.050781 -29.925781 34.941406 -30.320312 35.921875 -30.625 C 36.898438 -30.925781 37.957031 -31.078125 39.09375 -31.078125 C 41.625 -31.078125 43.65625 -30.351562 45.1875 -28.90625 C 46.71875 -27.457031 47.484375 -25.0625 47.484375 -21.71875 L 47.484375 -3.125 C 47.484375 -0.34375 47.53125 1.929688 47.625 3.703125 C 47.726562 5.472656 47.890625 6.878906 48.109375 7.921875 C 48.335938 8.960938 48.625 9.6875 48.96875 10.09375 C 49.320312 10.5 49.742188 10.703125 50.234375 10.703125 C 51.046875 10.703125 51.65625 10.242188 52.0625 9.328125 C 52.476562 8.410156 52.6875 7.195312 52.6875 5.6875 C 52.6875 4.507812 52.601562 3.722656 52.4375 3.328125 C 52.269531 2.941406 52.269531 2.671875 52.4375 2.515625 C 52.519531 2.429688 52.753906 2.335938 53.140625 2.234375 C 53.523438 2.128906 53.960938 2.078125 54.453125 2.078125 C 54.941406 2.078125 55.472656 2.148438 56.046875 2.296875 C 56.617188 2.441406 57.140625 2.695312 57.609375 3.0625 C 58.078125 3.425781 58.460938 3.921875 58.765625 4.546875 C 59.078125 5.179688 59.234375 6.007812 59.234375 7.03125 C 59.234375 7.96875 58.988281 8.832031 58.5 9.625 C 58.007812 10.425781 57.34375 11.132812 56.5 11.75 C 55.664062 12.363281 54.71875 12.84375 53.65625 13.1875 C 52.601562 13.53125 51.484375 13.703125 50.296875 13.703125 C 48.378906 13.703125 46.675781 13.300781 45.1875 12.5 C 43.695312 11.707031 42.441406 10.578125 41.421875 9.109375 C 40.398438 7.648438 39.625 5.878906 39.09375 3.796875 C 38.5625 1.710938 38.296875 -0.59375 38.296875 -3.125 L 38.296875 -21.78125 C 38.296875 -23.332031 38.019531 -24.363281 37.46875 -24.875 C 36.925781 -25.382812 36.207031 -25.640625 35.3125 -25.640625 C 34.613281 -25.640625 33.957031 -25.429688 33.34375 -25.015625 C 32.726562 -24.609375 32.175781 -24.160156 31.6875 -23.671875 C 31.164062 -23.109375 30.660156 -22.457031 30.171875 -21.71875 L 30.171875 -3.125 C 30.171875 -2.507812 30.375 -1.9375 30.78125 -1.40625 C 31.1875 -0.875 31.695312 -0.609375 32.3125 -0.609375 L 32.3125 0 L 18.84375 0 L 18.84375 -0.609375 C 19.457031 -0.609375 19.96875 -0.875 20.375 -1.40625 C 20.78125 -1.9375 20.984375 -2.507812 20.984375 -3.125 L 20.984375 -21.78125 C 20.984375 -23.332031 20.707031 -24.363281 20.15625 -24.875 C 19.601562 -25.382812 18.878906 -25.640625 17.984375 -25.640625 C 17.296875 -25.640625 16.644531 -25.429688 16.03125 -25.015625 C 15.414062 -24.609375 14.863281 -24.160156 14.375 -23.671875 C 13.84375 -23.109375 13.332031 -22.457031 12.84375 -21.71875 L 12.84375 -3.125 C 12.84375 -2.507812 13.046875 -1.9375 13.453125 -1.40625 C 13.867188 -0.875 14.378906 -0.609375 14.984375 -0.609375 L 14.984375 0 L 1.53125 0 L 1.53125 -0.609375 C 2.144531 -0.609375 2.65625 -0.875 3.0625 -1.40625 C 3.46875 -1.9375 3.671875 -2.507812 3.671875 -3.125 L 3.671875 -25.9375 C 3.671875 -26.550781 3.46875 -27.144531 3.0625 -27.71875 C 2.65625 -28.289062 2.144531 -28.578125 1.53125 -28.578125 L 1.53125 -29.1875 C 2.019531 -29.1875 2.691406 -29.207031 3.546875 -29.25 C 4.398438 -29.289062 5.316406 -29.367188 6.296875 -29.484375 C 7.273438 -29.609375 8.285156 -29.800781 9.328125 -30.0625 C 10.367188 -30.332031 11.335938 -30.710938 12.234375 -31.203125 Z M 12.234375 -31.203125 "/></g></g></g><g fill="#000000" fill-opacity="1"><g transform="translate(250.146206, 191.870157)"><g><path d="M 17.078125 -19.515625 C 17.273438 -20.578125 17.40625 -21.609375 17.46875 -22.609375 C 17.53125 -23.609375 17.46875 -24.515625 17.28125 -25.328125 C 17.101562 -26.148438 16.757812 -26.804688 16.25 -27.296875 C 15.738281 -27.785156 14.992188 -28.03125 14.015625 -28.03125 C 13.191406 -28.03125 12.410156 -27.671875 11.671875 -26.953125 C 10.941406 -26.234375 10.578125 -25.179688 10.578125 -23.796875 C 10.578125 -23.023438 10.648438 -22.40625 10.796875 -21.9375 C 10.941406 -21.46875 11.082031 -21.085938 11.21875 -20.796875 C 11.363281 -20.515625 11.507812 -20.3125 11.65625 -20.1875 C 11.800781 -20.070312 11.875 -19.953125 11.875 -19.828125 C 11.875 -19.253906 11.546875 -18.703125 10.890625 -18.171875 C 10.234375 -17.640625 9.273438 -17.375 8.015625 -17.375 C 7.398438 -17.375 6.765625 -17.472656 6.109375 -17.671875 C 5.460938 -17.878906 4.882812 -18.207031 4.375 -18.65625 C 3.863281 -19.101562 3.460938 -19.703125 3.171875 -20.453125 C 2.890625 -21.210938 2.789062 -22.144531 2.875 -23.25 C 3 -24.4375 3.34375 -25.519531 3.90625 -26.5 C 4.476562 -27.476562 5.242188 -28.300781 6.203125 -28.96875 C 7.171875 -29.644531 8.296875 -30.164062 9.578125 -30.53125 C 10.859375 -30.894531 12.253906 -31.078125 13.765625 -31.078125 C 15.273438 -31.078125 16.773438 -30.90625 18.265625 -30.5625 C 19.753906 -30.21875 21.085938 -29.59375 22.265625 -28.6875 C 23.453125 -27.789062 24.410156 -26.566406 25.140625 -25.015625 C 25.878906 -23.472656 26.25 -21.519531 26.25 -19.15625 L 26.25 -5.5 C 26.25 -4.488281 26.398438 -3.796875 26.703125 -3.421875 C 27.015625 -3.054688 27.394531 -2.875 27.84375 -2.875 C 28.125 -2.875 28.40625 -2.9375 28.6875 -3.0625 C 28.976562 -3.1875 29.226562 -3.304688 29.4375 -3.421875 L 29.734375 -2.8125 C 28.347656 -1.664062 27.082031 -0.828125 25.9375 -0.296875 C 24.800781 0.222656 23.457031 0.484375 21.90625 0.484375 C 20.476562 0.484375 19.316406 0.078125 18.421875 -0.734375 C 17.523438 -1.546875 17.078125 -2.707031 17.078125 -4.21875 C 16.296875 -3.320312 15.457031 -2.546875 14.5625 -1.890625 C 13.789062 -1.285156 12.894531 -0.738281 11.875 -0.25 C 10.851562 0.238281 9.75 0.484375 8.5625 0.484375 C 7.34375 0.484375 6.253906 0.28125 5.296875 -0.125 C 4.335938 -0.53125 3.53125 -1.066406 2.875 -1.734375 C 2.21875 -2.410156 1.726562 -3.175781 1.40625 -4.03125 C 1.082031 -4.894531 0.921875 -5.773438 0.921875 -6.671875 C 0.921875 -8.140625 1.273438 -9.375 1.984375 -10.375 C 2.703125 -11.375 3.597656 -12.21875 4.671875 -12.90625 C 5.753906 -13.601562 6.945312 -14.207031 8.25 -14.71875 C 9.5625 -15.226562 10.816406 -15.71875 12.015625 -16.1875 C 13.222656 -16.65625 14.285156 -17.144531 15.203125 -17.65625 C 16.117188 -18.164062 16.742188 -18.785156 17.078125 -19.515625 Z M 10.15625 -7.953125 C 10.15625 -6.972656 10.398438 -6.195312 10.890625 -5.625 C 11.378906 -5.050781 12.03125 -4.765625 12.84375 -4.765625 C 13.375 -4.765625 13.882812 -4.878906 14.375 -5.109375 C 14.863281 -5.335938 15.3125 -5.59375 15.71875 -5.875 C 16.164062 -6.15625 16.617188 -6.503906 17.078125 -6.921875 L 17.078125 -14.9375 C 16.335938 -14.644531 15.566406 -14.265625 14.765625 -13.796875 C 13.972656 -13.328125 13.226562 -12.804688 12.53125 -12.234375 C 11.84375 -11.660156 11.273438 -11.015625 10.828125 -10.296875 C 10.378906 -9.585938 10.15625 -8.804688 10.15625 -7.953125 Z M 10.15625 -7.953125 "/></g></g></g><g fill="#000000" fill-opacity="1"><g transform="translate(280.190355, 191.870157)"><g><path d="M 1.53125 -28.453125 L 1.53125 -29.0625 C 2.019531 -29.0625 2.691406 -29.082031 3.546875 -29.125 C 4.398438 -29.164062 5.316406 -29.242188 6.296875 -29.359375 C 7.273438 -29.484375 8.285156 -29.675781 9.328125 -29.9375 C 10.367188 -30.207031 11.335938 -30.585938 12.234375 -31.078125 L 12.84375 -31.078125 L 12.84375 -26.3125 C 13.21875 -26.675781 13.675781 -27.125 14.21875 -27.65625 C 14.769531 -28.1875 15.429688 -28.707031 16.203125 -29.21875 C 16.984375 -29.726562 17.875 -30.164062 18.875 -30.53125 C 19.875 -30.894531 20.96875 -31.078125 22.15625 -31.078125 C 24.269531 -31.078125 25.890625 -30.492188 27.015625 -29.328125 C 28.140625 -28.171875 28.703125 -26.613281 28.703125 -24.65625 C 28.703125 -23.675781 28.535156 -22.828125 28.203125 -22.109375 C 27.878906 -21.398438 27.472656 -20.800781 26.984375 -20.3125 C 26.492188 -19.820312 25.929688 -19.460938 25.296875 -19.234375 C 24.671875 -19.015625 24.050781 -18.90625 23.4375 -18.90625 C 22.207031 -18.945312 21.207031 -19.234375 20.4375 -19.765625 C 19.664062 -20.296875 19.28125 -20.847656 19.28125 -21.421875 C 19.28125 -21.535156 19.359375 -21.703125 19.515625 -21.921875 C 19.679688 -22.148438 19.851562 -22.4375 20.03125 -22.78125 C 20.21875 -23.132812 20.390625 -23.546875 20.546875 -24.015625 C 20.710938 -24.484375 20.796875 -24.984375 20.796875 -25.515625 C 20.796875 -26.128906 20.664062 -26.585938 20.40625 -26.890625 C 20.144531 -27.191406 19.804688 -27.34375 19.390625 -27.34375 C 18.785156 -27.34375 18.101562 -27.066406 17.34375 -26.515625 C 16.59375 -25.972656 15.878906 -25.234375 15.203125 -24.296875 C 14.535156 -23.359375 13.972656 -22.273438 13.515625 -21.046875 C 13.066406 -19.828125 12.84375 -18.539062 12.84375 -17.1875 L 12.84375 -3.125 C 12.84375 -2.507812 13.046875 -1.9375 13.453125 -1.40625 C 13.867188 -0.875 14.378906 -0.609375 14.984375 -0.609375 L 14.984375 0 L 1.53125 0 L 1.53125 -0.609375 C 2.144531 -0.609375 2.65625 -0.875 3.0625 -1.40625 C 3.46875 -1.9375 3.671875 -2.507812 3.671875 -3.125 L 3.671875 -25.828125 C 3.671875 -26.429688 3.46875 -27.019531 3.0625 -27.59375 C 2.65625 -28.164062 2.144531 -28.453125 1.53125 -28.453125 Z M 1.53125 -28.453125 "/></g></g></g><g fill="#000000" fill-opacity="1"><g transform="translate(309.500216, 191.870157)"><g><path d="M 0.921875 -30.59375 L 3.0625 -30.59375 C 3.832031 -30.59375 4.582031 -30.816406 5.3125 -31.265625 C 6.050781 -31.710938 6.707031 -32.269531 7.28125 -32.9375 C 7.851562 -33.613281 8.3125 -34.359375 8.65625 -35.171875 C 9 -35.992188 9.171875 -36.789062 9.171875 -37.5625 L 12.234375 -37.5625 L 12.234375 -30.59375 L 16.515625 -30.59375 L 16.515625 -27.53125 L 12.234375 -27.53125 L 12.234375 -6.609375 C 12.234375 -5.546875 12.457031 -4.832031 12.90625 -4.46875 C 13.351562 -4.101562 13.84375 -3.921875 14.375 -3.921875 C 14.707031 -3.921875 15.035156 -3.96875 15.359375 -4.0625 C 15.679688 -4.164062 15.945312 -4.28125 16.15625 -4.40625 L 16.640625 -3.296875 C 16.023438 -2.609375 15.351562 -1.976562 14.625 -1.40625 C 13.96875 -0.957031 13.203125 -0.53125 12.328125 -0.125 C 11.453125 0.28125 10.460938 0.484375 9.359375 0.484375 C 7.523438 0.484375 6.015625 -0.0820312 4.828125 -1.21875 C 3.648438 -2.363281 3.0625 -4.117188 3.0625 -6.484375 L 3.0625 -27.53125 L 0.921875 -27.53125 Z M 0.921875 -30.59375 "/></g></g></g><g fill="#000000" fill-opacity="1"><g transform="translate(327.061672, 191.870157)"><g><path d="M 15.78125 -31.078125 C 16.882812 -31.078125 18.035156 -30.925781 19.234375 -30.625 C 20.441406 -30.320312 21.535156 -29.84375 22.515625 -29.1875 C 23.492188 -28.53125 24.296875 -27.679688 24.921875 -26.640625 C 25.554688 -25.609375 25.875 -24.359375 25.875 -22.890625 C 25.875 -21.617188 25.515625 -20.390625 24.796875 -19.203125 C 24.085938 -18.023438 23.09375 -16.976562 21.8125 -16.0625 C 20.53125 -15.144531 18.976562 -14.398438 17.15625 -13.828125 C 15.34375 -13.253906 13.316406 -12.96875 11.078125 -12.96875 L 10.578125 -12.96875 C 10.828125 -11.007812 11.253906 -9.40625 11.859375 -8.15625 C 12.472656 -6.914062 13.175781 -5.925781 13.96875 -5.1875 C 14.769531 -4.457031 15.597656 -3.957031 16.453125 -3.6875 C 17.316406 -3.425781 18.09375 -3.296875 18.78125 -3.296875 C 20.25 -3.296875 21.582031 -3.613281 22.78125 -4.25 C 23.988281 -4.882812 24.960938 -5.488281 25.703125 -6.0625 L 26.125 -5.625 C 25.800781 -5.09375 25.351562 -4.46875 24.78125 -3.75 C 24.207031 -3.039062 23.515625 -2.367188 22.703125 -1.734375 C 21.890625 -1.109375 20.910156 -0.582031 19.765625 -0.15625 C 18.617188 0.269531 17.289062 0.484375 15.78125 0.484375 C 13.664062 0.484375 11.695312 0.128906 9.875 -0.578125 C 8.0625 -1.296875 6.492188 -2.328125 5.171875 -3.671875 C 3.847656 -5.015625 2.804688 -6.65625 2.046875 -8.59375 C 1.296875 -10.53125 0.921875 -12.703125 0.921875 -15.109375 C 0.921875 -17.554688 1.296875 -19.757812 2.046875 -21.71875 C 2.804688 -23.675781 3.847656 -25.347656 5.171875 -26.734375 C 6.492188 -28.117188 8.0625 -29.1875 9.875 -29.9375 C 11.695312 -30.695312 13.664062 -31.078125 15.78125 -31.078125 Z M 15.78125 -28.03125 C 15.050781 -28.03125 14.335938 -27.820312 13.640625 -27.40625 C 12.953125 -27 12.351562 -26.304688 11.84375 -25.328125 C 11.332031 -24.347656 10.941406 -23.050781 10.671875 -21.4375 C 10.410156 -19.832031 10.320312 -17.828125 10.40625 -15.421875 C 12.363281 -15.953125 13.890625 -16.898438 14.984375 -18.265625 C 16.085938 -19.628906 16.820312 -21.035156 17.1875 -22.484375 C 17.5625 -23.929688 17.613281 -25.21875 17.34375 -26.34375 C 17.082031 -27.46875 16.5625 -28.03125 15.78125 -28.03125 Z M 15.78125 -28.03125 "/></g></g></g><g fill="#000000" fill-opacity="1"><g transform="translate(117.671138, 225.190863)"><g><path d="M 8.808594 -4.542969 C 9.945312 -5.316406 10.609375 -6.558594 10.609375 -8.253906 L 10.609375 -8.917969 C 10.609375 -12.195312 8.296875 -13.632812 5.421875 -13.632812 L 2.9375 -13.632812 C 2.164062 -13.632812 1.542969 -12.988281 1.542969 -12.238281 L 1.542969 -1.308594 C 1.542969 -0.535156 2.164062 0.0625 2.9375 0.0625 C 3.6875 0.0625 4.328125 -0.535156 4.328125 -1.308594 L 4.328125 -3.621094 L 5.421875 -3.621094 C 5.703125 -3.621094 5.957031 -3.644531 6.214844 -3.664062 L 8.039062 -0.6875 C 8.488281 0.0429688 8.851562 0.171875 9.21875 0.171875 C 10.351562 0.171875 11.058594 -0.878906 10.351562 -2.035156 Z M 4.328125 -10.847656 L 5.464844 -10.847656 C 7.289062 -10.847656 7.824219 -10.160156 7.824219 -8.960938 L 7.824219 -8.144531 C 7.824219 -6.6875 6.859375 -6.152344 5.464844 -6.152344 L 4.328125 -6.152344 Z M 4.328125 -10.847656 "/></g></g></g><g fill="#000000" fill-opacity="1"><g transform="translate(137.777117, 225.190863)"><g><path d="M 8.464844 0 C 9.238281 0 9.816406 -0.621094 9.816406 -1.371094 C 9.816406 -2.144531 9.238281 -2.785156 8.464844 -2.785156 L 4.328125 -2.785156 L 4.328125 -5.636719 L 7.332031 -5.636719 C 8.101562 -5.636719 8.703125 -6.171875 8.703125 -6.902344 C 8.703125 -7.671875 8.101562 -8.253906 7.332031 -8.253906 L 4.328125 -8.253906 L 4.328125 -10.847656 L 8.464844 -10.847656 C 9.238281 -10.847656 9.816406 -11.488281 9.816406 -12.238281 C 9.816406 -12.988281 9.238281 -13.632812 8.464844 -13.632812 L 2.9375 -13.632812 C 2.144531 -13.632812 1.542969 -12.988281 1.542969 -12.238281 L 1.542969 -1.371094 C 1.542969 -0.621094 2.101562 0 2.828125 0 Z M 8.464844 0 "/></g></g></g><g fill="#000000" fill-opacity="1"><g transform="translate(156.639875, 225.190863)"><g><path d="M 10.804688 -3.214844 C 10.976562 -3.773438 10.804688 -4.953125 9.453125 -4.953125 C 8.789062 -4.953125 8.507812 -4.4375 8.339844 -4.136719 C 7.929688 -3.128906 7.03125 -2.59375 6.109375 -2.59375 C 4.886719 -2.59375 3.816406 -3.300781 3.816406 -4.738281 L 3.816406 -8.875 C 3.816406 -10.289062 4.867188 -11.015625 6.109375 -11.015625 C 7.03125 -11.015625 8.015625 -10.394531 8.339844 -9.496094 C 8.507812 -9.175781 8.789062 -8.703125 9.453125 -8.703125 C 10.824219 -8.703125 10.976562 -9.882812 10.804688 -10.417969 C 10.351562 -12.046875 8.746094 -13.824219 6.109375 -13.824219 C 3.066406 -13.824219 1.050781 -11.597656 1.050781 -8.960938 L 1.050781 -4.652344 C 1.050781 -2.058594 3.109375 0.191406 6.109375 0.191406 C 8.808594 0.191406 10.351562 -1.566406 10.804688 -3.214844 Z M 10.804688 -3.214844 "/></g></g></g><g fill="#000000" fill-opacity="1"><g transform="translate(176.617263, 225.190863)"><g><path d="M 1.050781 -4.628906 C 1.050781 -2.078125 3.085938 0.191406 6 0.191406 C 8.917969 0.191406 10.996094 -2.058594 10.996094 -4.628906 L 10.996094 -8.960938 C 10.996094 -11.511719 9.003906 -13.824219 6 -13.824219 C 3.042969 -13.824219 1.050781 -11.554688 1.050781 -8.960938 Z M 3.816406 -8.851562 C 3.816406 -10.308594 4.84375 -11.058594 6 -11.058594 C 7.160156 -11.058594 8.210938 -10.308594 8.210938 -8.851562 L 8.210938 -4.78125 C 8.210938 -3.324219 7.203125 -2.570312 6 -2.570312 C 4.84375 -2.570312 3.816406 -3.324219 3.816406 -4.78125 Z M 3.816406 -8.851562 "/></g></g></g><g fill="#000000" fill-opacity="1"><g transform="translate(197.151948, 225.190863)"><g><path d="M 10.179688 -13.738281 C 9.410156 -13.738281 8.765625 -13.117188 8.765625 -12.347656 L 8.765625 -5.875 L 4.371094 -12.773438 C 3.835938 -13.546875 3.492188 -13.738281 2.894531 -13.738281 C 2.121094 -13.738281 1.542969 -13.011719 1.542969 -12.28125 L 1.542969 -1.308594 C 1.542969 -0.515625 2.144531 0.128906 2.914062 0.128906 C 3.707031 0.128906 4.328125 -0.492188 4.328125 -1.308594 L 4.328125 -7.929688 L 9.132812 -0.429688 C 9.386719 -0.0625 9.816406 0.128906 10.351562 0.128906 C 10.996094 0.128906 11.554688 -0.34375 11.554688 -1.113281 L 11.554688 -12.347656 C 11.554688 -13.117188 10.953125 -13.738281 10.179688 -13.738281 Z M 10.179688 -13.738281 "/></g></g></g><g fill="#000000" fill-opacity="1"><g transform="translate(218.715513, 225.190863)"><g><path d="M 6 -13.824219 C 3.042969 -13.824219 1.050781 -11.554688 1.050781 -8.960938 L 1.050781 -4.628906 C 1.050781 -2.421875 2.570312 -0.449219 4.84375 0.0625 L 4.84375 1.800781 C 4.84375 2.378906 5.316406 2.828125 5.9375 2.828125 C 6.558594 2.828125 7.074219 2.378906 7.074219 1.800781 L 7.074219 0.0859375 C 9.410156 -0.386719 10.996094 -2.378906 10.996094 -4.628906 L 10.996094 -8.960938 C 10.996094 -11.511719 9.003906 -13.824219 6 -13.824219 Z M 8.210938 -4.78125 C 8.210938 -3.324219 7.203125 -2.570312 6 -2.570312 C 4.84375 -2.570312 3.816406 -3.324219 3.816406 -4.78125 L 3.816406 -8.851562 C 3.816406 -10.308594 4.84375 -11.058594 6 -11.058594 C 7.160156 -11.058594 8.210938 -10.308594 8.210938 -8.851562 Z M 8.210938 -4.78125 "/></g></g></g><g fill="#000000" fill-opacity="1"><g transform="translate(239.250204, 225.190863)"><g><path d="M 6.042969 0.191406 C 9.046875 0.191406 11.125 -2.058594 11.125 -4.628906 L 11.125 -12.324219 C 11.125 -13.117188 10.480469 -13.71875 9.730469 -13.71875 C 8.9375 -13.71875 8.316406 -13.117188 8.316406 -12.324219 L 8.316406 -4.78125 C 8.316406 -3.324219 7.289062 -2.570312 6.109375 -2.570312 C 4.929688 -2.570312 3.945312 -3.324219 3.945312 -4.78125 L 3.945312 -12.324219 C 3.945312 -13.117188 3.300781 -13.71875 2.550781 -13.71875 C 1.777344 -13.71875 1.15625 -13.117188 1.15625 -12.324219 L 1.15625 -4.628906 C 1.15625 -2.078125 3.28125 0.191406 6.042969 0.191406 Z M 6.042969 0.191406 "/></g></g></g><g fill="#000000" fill-opacity="1"><g transform="translate(259.999229, 225.190863)"><g><path d="M 4.328125 -12.347656 C 4.328125 -13.117188 3.6875 -13.71875 2.914062 -13.71875 C 2.1875 -13.71875 1.542969 -13.117188 1.542969 -12.347656 L 1.542969 -1.285156 C 1.542969 -0.515625 2.164062 0.0859375 2.914062 0.0859375 C 3.664062 0.0859375 4.328125 -0.515625 4.328125 -1.285156 Z M 4.328125 -12.347656 "/></g></g></g><g fill="#000000" fill-opacity="1"><g transform="translate(274.36063, 225.190863)"><g><path d="M 0.941406 -9.816406 C 0.941406 -7.695312 2.464844 -6.539062 4.480469 -5.832031 C 6.257812 -5.207031 7.050781 -4.714844 7.050781 -3.878906 C 7.050781 -3.042969 6.472656 -2.421875 5.421875 -2.421875 C 4.308594 -2.421875 3.515625 -3.085938 3 -3.835938 C 2.53125 -4.328125 2.230469 -4.480469 1.757812 -4.480469 C 0.835938 -4.480469 0.0859375 -3.515625 0.792969 -2.402344 C 1.585938 -1.027344 3.238281 0.191406 5.421875 0.191406 C 7.910156 0.191406 9.839844 -1.5 9.839844 -3.964844 C 9.839844 -6.429688 7.867188 -7.503906 5.980469 -8.167969 C 4.480469 -8.679688 3.6875 -9.152344 3.707031 -9.988281 C 3.707031 -10.695312 4.285156 -11.167969 5.144531 -11.167969 C 5.980469 -11.167969 6.558594 -10.867188 7.03125 -10.308594 C 7.4375 -9.988281 7.738281 -9.710938 8.316406 -9.710938 C 9.238281 -9.710938 10.074219 -10.976562 9.132812 -11.9375 C 8.273438 -12.96875 6.902344 -13.824219 5.25 -13.824219 C 2.871094 -13.824219 0.941406 -12.367188 0.941406 -9.816406 Z M 0.941406 -9.816406 "/></g></g></g><g fill="#000000" fill-opacity="1"><g transform="translate(293.330557, 225.190863)"><g><path d="M 1.523438 -13.632812 C 0.664062 -13.632812 0.171875 -13.117188 0.171875 -12.261719 C 0.171875 -11.425781 0.664062 -10.847656 1.523438 -10.847656 L 3.707031 -10.847656 L 3.707031 -1.285156 C 3.707031 -0.429688 4.285156 0.0859375 5.101562 0.0859375 C 6 0.0859375 6.496094 -0.449219 6.496094 -1.328125 L 6.496094 -10.847656 L 8.679688 -10.847656 C 9.558594 -10.847656 10.054688 -11.425781 10.054688 -12.21875 C 10.054688 -13.117188 9.558594 -13.632812 8.679688 -13.632812 Z M 1.523438 -13.632812 "/></g></g></g><g fill="#000000" fill-opacity="1"><g transform="translate(312.04327, 225.190863)"><g><path d="M 7.074219 -12.859375 C 6.878906 -13.398438 6.386719 -13.71875 5.746094 -13.71875 C 5.144531 -13.71875 4.628906 -13.398438 4.457031 -12.859375 L 0.386719 -1.863281 C 0 -0.855469 0.664062 0.0859375 1.714844 0.0859375 C 2.273438 0.0859375 2.765625 -0.234375 2.9375 -0.773438 L 3.386719 -2.207031 L 8.125 -2.207031 L 8.574219 -0.773438 C 8.722656 -0.214844 9.261719 0.0859375 9.773438 0.0859375 C 11.015625 0.0859375 11.425781 -0.964844 11.101562 -1.863281 Z M 5.765625 -9.882812 L 7.265625 -4.996094 L 4.242188 -4.996094 Z M 5.765625 -9.882812 "/></g></g></g><g clip-path="url(#9abe89875e)"><g clip-path="url(#80f180af38)"><g clip-path="url(#fb405cd9b6)"><path fill="#ec0c8c" d="M 44.511719 189.949219 C 36.460938 194.164062 27.351562 194.996094 19.085938 188.128906 C 18.109375 187.316406 17.1875 186.390625 16.636719 185.246094 C 15.96875 183.851562 15.902344 182.238281 16.105469 180.703125 C 16.632812 176.699219 18.984375 172.972656 22.371094 170.769531 C 25.757812 168.566406 30.121094 167.929688 33.992188 169.074219 C 44.449219 172.15625 51.394531 175.585938 62.660156 171.300781 C 62.195312 173.730469 60.6875 175.824219 59.105469 177.726562 C 55.171875 182.46875 50.097656 187.023438 44.511719 189.949219 Z M 44.511719 189.949219 " fill-opacity="1" fill-rule="nonzero"/></g></g></g><g clip-path="url(#7277545927)"><g clip-path="url(#6e5ca2b24f)"><g clip-path="url(#b1fa99c557)"><path fill="#00aeef" d="M 60.960938 202.273438 C 58.527344 209.042969 53.660156 214.40625 45.164062 214.828125 C 44.160156 214.875 43.125 214.832031 42.191406 214.457031 C 41.054688 214.003906 40.152344 213.09375 39.453125 212.09375 C 37.613281 209.476562 36.988281 206.042969 37.785156 202.945312 C 38.582031 199.851562 40.785156 197.144531 43.65625 195.734375 C 51.398438 191.933594 57.289062 190.21875 61.5625 181.6875 C 62.589844 183.355469 62.832031 185.378906 62.929688 187.335938 C 63.175781 192.210938 62.652344 197.582031 60.960938 202.273438 Z M 60.960938 202.273438 " fill-opacity="1" fill-rule="nonzero"/></g></g></g><g clip-path="url(#38bf55f939)"><g clip-path="url(#8c4bb2917e)"><g clip-path="url(#69a7e360d2)"><path fill="#fff202" d="M 41.941406 167.851562 C 35.144531 165.488281 29.730469 160.683594 29.21875 152.191406 C 29.15625 151.1875 29.191406 150.152344 29.554688 149.214844 C 29.996094 148.074219 30.894531 147.164062 31.886719 146.449219 C 34.484375 144.585938 37.910156 143.921875 41.015625 144.683594 C 44.121094 145.445312 46.851562 147.621094 48.292969 150.472656 C 52.175781 158.179688 53.957031 164.046875 62.535156 168.226562 C 60.878906 169.277344 58.855469 169.539062 56.898438 169.65625 C 52.03125 169.953125 46.652344 169.492188 41.941406 167.851562 Z M 41.941406 167.851562 " fill-opacity="1" fill-rule="nonzero"/></g></g></g><path stroke-linecap="butt" transform="matrix(0.75, 0, 0, 0.75, 107.852004, 196.123845)" fill="none" stroke-linejoin="miter" d="M -0.000588424 3.001541 L 170.015048 3.001541 " stroke="#000000" stroke-width="6" stroke-opacity="1" stroke-miterlimit="4"/><path stroke-linecap="butt" transform="matrix(0.75, 0, 0, 0.75, 260.90524, 196.123845)" fill="none" stroke-linejoin="miter" d="M 0.00134644 3.001541 L 124.48573 3.001541 " stroke="#000000" stroke-width="6" stroke-opacity="1" stroke-miterlimit="4"/></svg>