<svg xmlns="http://www.w3.org/2000/svg" xmlns:xlink="http://www.w3.org/1999/xlink" width="500" zoomAndPan="magnify" viewBox="0 0 375 374.999991" height="500" preserveAspectRatio="xMidYMid meet" version="1.0"><defs><clipPath id="b37aa35ddf"><path d="M 22.167969 22.167969 L 352.917969 22.167969 L 352.917969 352.917969 L 22.167969 352.917969 Z M 22.167969 22.167969 " clip-rule="nonzero"/></clipPath></defs><path fill="#ffffff" d="M 136.164062 275.128906 C 136.164062 275.59375 136.121094 276.050781 136.027344 276.503906 C 135.9375 276.960938 135.804688 277.402344 135.628906 277.828125 C 135.449219 278.257812 135.230469 278.664062 134.976562 279.050781 C 134.71875 279.4375 134.425781 279.792969 134.097656 280.121094 C 133.769531 280.449219 133.414062 280.742188 133.027344 280.996094 C 132.640625 281.253906 132.234375 281.472656 131.808594 281.648438 C 131.378906 281.828125 130.9375 281.960938 130.484375 282.050781 C 130.027344 282.140625 129.570312 282.1875 129.105469 282.1875 C 128.640625 282.1875 128.183594 282.140625 127.726562 282.050781 C 127.273438 281.960938 126.832031 281.828125 126.402344 281.648438 C 125.976562 281.472656 125.570312 281.253906 125.183594 280.996094 C 124.796875 280.742188 124.441406 280.449219 124.113281 280.121094 C 123.785156 279.792969 123.492188 279.4375 123.234375 279.050781 C 122.980469 278.664062 122.761719 278.257812 122.582031 277.828125 C 122.40625 277.402344 122.273438 276.960938 122.183594 276.503906 C 122.09375 276.050781 122.046875 275.59375 122.046875 275.128906 C 122.046875 274.664062 122.09375 274.207031 122.183594 273.75 C 122.273438 273.296875 122.40625 272.855469 122.582031 272.425781 C 122.761719 272 122.980469 271.59375 123.234375 271.207031 C 123.492188 270.820312 123.785156 270.464844 124.113281 270.136719 C 124.441406 269.808594 124.796875 269.515625 125.183594 269.257812 C 125.570312 269 125.976562 268.785156 126.402344 268.605469 C 126.832031 268.429688 127.273438 268.296875 127.726562 268.207031 C 128.183594 268.113281 128.640625 268.070312 129.105469 268.070312 C 129.570312 268.070312 130.027344 268.113281 130.484375 268.207031 C 130.9375 268.296875 131.378906 268.429688 131.808594 268.605469 C 132.234375 268.785156 132.640625 269 133.027344 269.257812 C 133.414062 269.515625 133.769531 269.808594 134.097656 270.136719 C 134.425781 270.464844 134.71875 270.820312 134.976562 271.207031 C 135.230469 271.59375 135.449219 272 135.628906 272.425781 C 135.804688 272.855469 135.9375 273.296875 136.027344 273.75 C 136.121094 274.207031 136.164062 274.664062 136.164062 275.128906 Z M 136.164062 275.128906 " fill-opacity="1" fill-rule="nonzero"/><path fill="#ffffff" d="M 252.023438 275.128906 C 252.023438 275.59375 251.976562 276.050781 251.886719 276.503906 C 251.796875 276.960938 251.664062 277.402344 251.484375 277.828125 C 251.308594 278.257812 251.089844 278.664062 250.832031 279.050781 C 250.574219 279.4375 250.28125 279.792969 249.957031 280.121094 C 249.628906 280.449219 249.269531 280.742188 248.886719 280.996094 C 248.5 281.253906 248.09375 281.472656 247.664062 281.648438 C 247.238281 281.828125 246.796875 281.960938 246.339844 282.050781 C 245.886719 282.140625 245.425781 282.1875 244.964844 282.1875 C 244.5 282.1875 244.042969 282.140625 243.585938 282.050781 C 243.132812 281.960938 242.691406 281.828125 242.261719 281.648438 C 241.835938 281.472656 241.425781 281.253906 241.042969 280.996094 C 240.65625 280.742188 240.300781 280.449219 239.972656 280.121094 C 239.644531 279.792969 239.351562 279.4375 239.09375 279.050781 C 238.835938 278.664062 238.621094 278.257812 238.441406 277.828125 C 238.265625 277.402344 238.132812 276.960938 238.039062 276.503906 C 237.949219 276.050781 237.90625 275.59375 237.90625 275.128906 C 237.90625 274.664062 237.949219 274.207031 238.039062 273.75 C 238.132812 273.296875 238.265625 272.855469 238.441406 272.425781 C 238.621094 272 238.835938 271.59375 239.09375 271.207031 C 239.351562 270.820312 239.644531 270.464844 239.972656 270.136719 C 240.300781 269.808594 240.65625 269.515625 241.042969 269.257812 C 241.425781 269 241.835938 268.785156 242.261719 268.605469 C 242.691406 268.429688 243.132812 268.296875 243.585938 268.207031 C 244.042969 268.113281 244.5 268.070312 244.964844 268.070312 C 245.425781 268.070312 245.886719 268.113281 246.339844 268.207031 C 246.796875 268.296875 247.238281 268.429688 247.664062 268.605469 C 248.09375 268.785156 248.5 269 248.886719 269.257812 C 249.269531 269.515625 249.628906 269.808594 249.957031 270.136719 C 250.28125 270.464844 250.574219 270.820312 250.832031 271.207031 C 251.089844 271.59375 251.308594 272 251.484375 272.425781 C 251.664062 272.855469 251.796875 273.296875 251.886719 273.75 C 251.976562 274.207031 252.023438 274.664062 252.023438 275.128906 Z M 252.023438 275.128906 " fill-opacity="1" fill-rule="nonzero"/><g clip-path="url(#b37aa35ddf)"><path fill="#ffffff" d="M 187.464844 22.066406 C 96.1875 22.066406 22.1875 96.070312 22.1875 187.347656 C 22.1875 278.625 96.1875 352.636719 187.464844 352.636719 C 278.75 352.636719 352.75 278.628906 352.75 187.347656 C 352.75 96.070312 278.75 22.066406 187.464844 22.066406 Z M 142.296875 250.921875 L 244.964844 250.921875 C 258.308594 250.921875 269.167969 261.78125 269.167969 275.128906 C 269.167969 288.476562 258.308594 299.335938 244.964844 299.335938 C 231.613281 299.335938 220.753906 288.476562 220.753906 275.128906 C 220.753906 272.675781 221.128906 270.304688 221.808594 268.070312 L 152.253906 268.070312 C 152.9375 270.304688 153.3125 272.671875 153.3125 275.128906 C 153.3125 288.476562 142.453125 299.335938 129.105469 299.335938 C 115.757812 299.335938 104.898438 288.476562 104.898438 275.128906 C 104.898438 263.207031 113.574219 253.292969 124.9375 251.308594 L 120.683594 227.871094 L 120.636719 227.648438 L 98.066406 115.949219 L 77.328125 116.089844 L 77.214844 98.941406 L 112.078125 98.710938 L 120.515625 140.453125 L 276.804688 159.191406 L 256.953125 234.84375 L 139.375 234.84375 Z M 142.296875 250.921875 " fill-opacity="1" fill-rule="nonzero"/></g></svg>